# xmcd
# Track frame offsets:
# 150
# 19271
# 38945
# 49478
# 63962
# 74603
# 92229
# 111879
# 126120
# 145119
# 160293
# 172873
#
# Disc length: 2561 seconds
# Revision: 0
# Processed by: cddbd v1.5.2PL0 Copyright (c) Steve Scherf et al.
# Submitted via: VisiTrax 2.10.0.248 - For more info visit www.synapsa.com
#
DISCID=ab09ff0c
DTITLE=Will Taylor and Strings Attached - House of Wills
DYEAR=2011
DGENRE=Country
TTITLE0=Hello Walls
TTITLE1=Home Motel
TTITLE2=On the Sunny Side of the Street
TTITLE3=Night Life
TTITLE4=Why Are You Picking on Me
TTITLE5=Sittin' on Top of the World
TTITLE6=Crazy
TTITLE7=I Guess I've Come to Live Here in Your Eyes
TTITLE8=Looking for a Place to Fall Apart
TTITLE9=Corrine Corinna
TTITLE10=On the Road Again
TTITLE11=It Always Will Be
EXTD=Submitted by Larry@LosSenderosStudio.com
EXTT0=
EXTT1=
EXTT2=
EXTT3=
EXTT4=
EXTT5=
EXTT6=
EXTT7=
EXTT8=
EXTT9=
EXTT10=
EXTT11=
PLAYORDER=
